<svg width="15" height="14" viewBox="0 0 15 14" fill="none" xmlns="http://www.w3.org/2000/svg">
<path opacity="0.9" d="M7.65234 0C3.80234 0 0.652344 3.15 0.652344 7C0.652344 10.85 3.80234 14 7.65234 14C11.5023 14 14.6523 10.85 14.6523 7C14.6523 3.15 11.5023 0 7.65234 0ZM9.75234 7.7H7.65234C7.23234 7.7 6.95234 7.42 6.95234 7V3.5C6.95234 3.08 7.23234 2.8 7.65234 2.8C8.07234 2.8 8.35234 3.08 8.35234 3.5V6.3H9.75234C10.1723 6.3 10.4523 6.58 10.4523 7C10.4523 7.42 10.1723 7.7 9.75234 7.7Z" fill="white"/>
</svg>
